<svg xmlns="http://www.w3.org/2000/svg" xmlns:xlink="http://www.w3.org/1999/xlink" width="319.514" height="236.308" viewBox="0 0 319.514 236.308">
  <defs>
    <linearGradient id="linear-gradient" y1="0.5" x2="1" y2="0.5" gradientUnits="objectBoundingBox">
      <stop offset="0" stop-color="gray" stop-opacity="0.251"/>
      <stop offset="0.54" stop-color="gray" stop-opacity="0.122"/>
      <stop offset="1" stop-color="gray" stop-opacity="0.102"/>
    </linearGradient>
    <linearGradient id="linear-gradient-2" x1="12.106" y1="0.5" x2="13.106" y2="0.5" xlink:href="#linear-gradient"/>
  </defs>
  <g id="Group_119" data-name="Group 119" transform="translate(-544.846 -123)">
    <path id="Контур_185" data-name="Контур 185" d="M178.881,74.465c-18.356.024-36.023-5.2-52.923-11s-33.666-12.3-51.681-15.049c-11.584-1.765-24.757-1.607-33.814,4.817C31.747,59.416,29.222,69.645,28,79.094c-.916,7.106-1.338,14.57,2.093,21.073,2.382,4.514,6.458,8.235,9.333,12.537,10.029,14.967,4,34.086-5.748,49.4-4.57,7.185-9.923,14.073-13.378,21.669s-4.871,16.211-1.348,23.709c3.491,7.432,11.379,12.826,19.844,16.509,17.189,7.5,37.2,9.1,56.677,9.721,43.11,1.372,86.3-1.426,129.38-4.226,15.942-1.035,31.953-2.078,47.566-5.076,8.668-1.663,17.594-4.136,23.74-9.545,7.8-6.869,9.4-18.086,3.721-26.149-9.523-13.519-34.626-16.065-41.453-30.7-3.764-8.06-.519-17.293,4.262-25.057,10.255-16.66,27.905-31.582,28.2-50.216.2-12.8-8.975-25.279-22.684-30.841-14.37-5.825-33.962-4.327-44.03,6.53C213.827,69.615,195.088,74.447,178.881,74.465Z" transform="translate(561.088 75.544)" fill="#aa80ff" opacity="0.1"/>
    <g id="undraw_warning_cyit" transform="translate(544.846 112.677)">
      <ellipse id="Ellipse_7" data-name="Ellipse 7" cx="53.239" cy="8.252" rx="53.239" ry="8.252" transform="translate(0 190.813)" fill="#aa80ff" opacity="0.1"/>
      <ellipse id="Ellipse_8" data-name="Ellipse 8" cx="20.708" cy="4.278" rx="20.708" ry="4.278" transform="translate(58.121 238.075)" fill="#aa80ff" opacity="0.1"/>
      <ellipse id="Ellipse_9" data-name="Ellipse 9" cx="20.708" cy="4.278" rx="20.708" ry="4.278" transform="translate(199.617 221.618)" fill="#aa80ff" opacity="0.1"/>
      <ellipse id="Ellipse_10" data-name="Ellipse 10" cx="33.674" cy="5.705" rx="33.674" ry="5.705" transform="translate(116.384 215.173)" fill="#aa80ff" opacity="0.1"/>
      <ellipse id="Ellipse_11" data-name="Ellipse 11" cx="70.236" cy="11.001" rx="70.236" ry="11.001" transform="translate(179.042 181.639)" fill="#aa80ff" opacity="0.1"/>
      <path id="Path_514" data-name="Path 514" d="M126.087,509.9a19.544,19.544,0,0,0,1.018,19.621,4.854,4.854,0,0,0,1.644,1.774c2.182.857,6.553,2.965,6.553,2.965l10.524-4.135s1.709-9.038,3.324-16.8h0c1.1-5.293,2.167-9.989,2.6-10.812,1.09-2.027,0-24.1,0-24.1s-10.524-.706-13.418,7.407l-1.266,2.476Z" transform="translate(-111.53 -336.462)" fill="#a8a8a8"/>
      <path id="Path_515" data-name="Path 515" d="M168,512.347c6.4,7.333,9.1.991,9.1.991h0c1.1-5.293,2.167-9.989,2.6-10.812,1.09-2.027,0-24.1,0-24.1s-10.524-.706-13.418,7.407l-1.266,2.476C164.2,494.8,163.4,507.069,168,512.347Z" transform="translate(-139.47 -336.469)" fill="#fff" opacity="0.1"/>
      <path id="Path_516" data-name="Path 516" d="M180.59,476.951l37.144-4.29,6.627-43.607-5.011-11.326a45.891,45.891,0,0,0-8.667-13.075,26.585,26.585,0,0,0-8.778-6.5,13.183,13.183,0,0,0-1.34-.458,3.47,3.47,0,0,0-3.1.548c-4.581,3.247-6.218,17.052-6.748,23.7a74.164,74.164,0,0,1-1.105,8.138Z" transform="translate(-150.655 -280.635)" fill="#a8a8a8"/>
      <path id="Path_517" data-name="Path 517" d="M242.928,428.577l-7.738,19.036c4.055-2.965,10.063-19.114,10.063-19.114l5.383,18.411-4.29-19.4a60.692,60.692,0,0,0,.545-12.734c-.34-4.872-4.912-12.691-7.395-16.628a13.18,13.18,0,0,0-1.34-.458,3.47,3.47,0,0,0-3.1.548c1.95,3.916,6.825,13.706,8.311,16.616C245.256,418.514,242.928,428.577,242.928,428.577Z" transform="translate(-188.265 -280.628)" fill="#fff" opacity="0.1"/>
      <path id="Path_518" data-name="Path 518" d="M280.89,545.252h20.154a6.113,6.113,0,0,0,6.107-6.423c-.446-8.642-1.576-24.051-4.262-33.832-1.452-5.277-3.139-8.048-4.686-9.413a4.572,4.572,0,0,0-2.665-1.254,3.5,3.5,0,0,0-2.167.526c-3.742,3.587-8.113,22.466-8.113,22.466Z" transform="translate(-219.909 -347.453)" fill="#a8a8a8"/>
      <path id="Path_519" data-name="Path 519" d="M307.05,587.256a9.894,9.894,0,0,1,0,7.537l-4.491,2.219s-12.072-5.117-10.6-15.6c0,0,.4-2.167,4.553-2a11.784,11.784,0,0,1,10.543,7.847Z" transform="translate(-227.463 -406.199)" fill="#fff" opacity="0.1"/>
      <path id="Path_520" data-name="Path 520" d="M312.8,500.972c-.139-3.677,1.857-4.952,3.507-5.358a4.572,4.572,0,0,0-2.665-1.254,7.076,7.076,0,0,0-2.325,3.714l-4.21,20.519S313.038,507.134,312.8,500.972Z" transform="translate(-238.013 -347.482)" fill="#fff" opacity="0.1"/>
      <path id="Path_521" data-name="Path 521" d="M192.614,568.14l9.979,13.65,1.73,11.267-6.413,3.167-9.246,2.043a8.887,8.887,0,0,1-2.715.176l-25.23-2.219,3.433-7.958,11.855-16.643Z" transform="translate(-136.936 -398.425)" fill="#a8a8a8"/>
      <path id="Path_522" data-name="Path 522" d="M196.381,552.988s6.81.467,4.253,12.168-28.864,12.638-28.864,12.638a69.119,69.119,0,0,1,14.189-17c.966-.8,1.9-1.625,2.786-2.51C190.723,556.3,194.505,552.827,196.381,552.988Z" transform="translate(-144.565 -387.959)" fill="#fff" opacity="0.1"/>
      <path id="Path_523" data-name="Path 523" d="M271.07,581.5s9.227,8.4,8.357,21.321" transform="translate(-213.129 -407.649)" opacity="0.1"/>
      <path id="Path_524" data-name="Path 524" d="M297.2,496.06a64.467,64.467,0,0,0-10.769,32.69" transform="translate(-223.734 -348.656)" opacity="0.1"/>
      <path id="Path_525" data-name="Path 525" d="M198.214,478.43s4.686,21.28-7.014,37.32" transform="translate(-157.981 -336.483)" opacity="0.1"/>
      <path id="Path_526" data-name="Path 526" d="M483.306,615.84h50.5a2.829,2.829,0,0,0,2.476-4.169l-25.236-46.888a2.826,2.826,0,0,0-4.977,0l-25.248,46.888a2.829,2.829,0,0,0,2.489,4.169Zm28.461-8.568h-6.426V600.85h6.426Zm0-10.707h-6.426V583.717h6.426Z" transform="translate(-357.719 -395.08)" fill="#464353"/>
      <path id="Path_527" data-name="Path 527" d="M483.306,615.84h50.5a2.829,2.829,0,0,0,2.476-4.169l-25.236-46.888a2.826,2.826,0,0,0-4.977,0l-25.248,46.888a2.829,2.829,0,0,0,2.489,4.169Zm28.461-8.568h-6.426V600.85h6.426Zm0-10.707h-6.426V583.717h6.426Z" transform="translate(-357.719 -395.08)" opacity="0.1"/>
      <path id="Path_528" data-name="Path 528" d="M483.306,620.84h50.5a2.829,2.829,0,0,0,2.476-4.169l-25.236-46.888a2.826,2.826,0,0,0-4.977,0l-25.248,46.888a2.829,2.829,0,0,0,2.489,4.169Zm28.461-8.568h-6.426V605.85h6.426Zm0-10.707h-6.426V588.717h6.426Z" transform="translate(-357.719 -398.532)" fill="#464353"/>
      <path id="Path_529" data-name="Path 529" d="M183.837,362.065a3.467,3.467,0,0,0-.715-.347c-.83-.31-1.715-.39-2.544-.687a3.643,3.643,0,0,1-1.278-.755c-.062-.062-.121-.124-.176-.189.31-.195.591-.39.9-.573a10.635,10.635,0,0,0-3.733-3.714c.5-.734,1.622-.675,2.278-1.266a2.167,2.167,0,0,0,.619-1.216,8.407,8.407,0,0,0-.362-3.674,45.289,45.289,0,0,0-2.136-6.918,27.268,27.268,0,0,1-1.158-2.8c-.8-2.668-.241-5.572-.848-8.3a5.821,5.821,0,0,1-.291-2.647c.337-1.343,1.839-2.139,2.167-3.482,1.189-4.782,1.4-9.744,2.077-14.625a18.823,18.823,0,0,0,.251-2.807c0-.987-.176-1.965-.248-2.95-.192-2.764.362-5.525.6-8.286a8.667,8.667,0,0,1,1.124,2.77,11.184,11.184,0,0,1,.065,2.749,12.913,12.913,0,0,1-.2,1.829c-.152.718-.418,1.405-.594,2.123a6.565,6.565,0,0,0,.294,4.259c.421.929,1.346,1.789,2.309,1.51a2.494,2.494,0,0,0,1.365-1.483,9.048,9.048,0,0,0,.82-6.342c-.412-1.393-1.316-2.653-1.4-4.107a10.616,10.616,0,0,1,.136-1.736c.387-3.362-.449-6.738-.635-10.119a19.739,19.739,0,0,0-.17-2.956c-.025-.115-.053-.229-.087-.337a.724.724,0,0,1,.223.1,2.018,2.018,0,0,0-.043-1.73,4.4,4.4,0,0,1-.291-.545c-.118-.31-.1-.669-.241-.966a4.117,4.117,0,0,0-.31-.449,3.6,3.6,0,0,1-.43-2.031q-.071-5.5-.31-10.982a17.985,17.985,0,0,0-.839-5.5,8.246,8.246,0,0,0-2.91-3.86,6.775,6.775,0,0,0-.653-.409,2.266,2.266,0,0,0,.186-.836,2,2,0,0,0,0-.272l-.019-.155h0a6.531,6.531,0,0,0-.619-1.857,5.219,5.219,0,0,1-.591-2.031,3.154,3.154,0,0,1,.022-.384h0c.105-.891.57-1.727.734-2.619a4.49,4.49,0,0,0,.068-.839c0-.1,0-.2,0-.294a8.437,8.437,0,0,0-.994-3.126c-.155-.31-.31-.619-.483-.929-.08-.579-.17-1.158-.26-1.733-.05-.334-.1-.669-.173-1q-.053-.248-.121-.483c.48-.452.2-1.114-.105-1.727-.591-1.164-.467-2.554-.718-3.835a11.589,11.589,0,0,0-.91-2.575,5.739,5.739,0,0,0-.987-1.622,6.055,6.055,0,0,0-1.278-.929,4.069,4.069,0,0,0-1.269-.573c-.282-.056-.57-.053-.848-.118a2.686,2.686,0,0,1-.52-.189,3.538,3.538,0,0,0-1.111-.405,2.476,2.476,0,0,0-1.071.2,3.941,3.941,0,0,1-1.151.31h-.436a.969.969,0,0,0-.591.142,2.235,2.235,0,0,0-.254.26,3.427,3.427,0,0,1-.746.511,7.351,7.351,0,0,0-3.609,6.283,3.114,3.114,0,0,1-.09,1.018c-.09.26-.266.486-.34.752a2.111,2.111,0,0,0-.034.706c.025.362.062.721.1,1.083h0a2.278,2.278,0,0,0-.452,1h0a1.365,1.365,0,0,0-.028.192v.025h0a5.605,5.605,0,0,0,.471,1.857,6.6,6.6,0,0,1-.093,3.643,14.345,14.345,0,0,0-.619,2.476h0v.056a2.993,2.993,0,0,0,.142,1.238c.1.282.254.545.347.83a3.418,3.418,0,0,1-.78,2.953h0c-.1.139-.2.272-.31.4h.015l-.015.015.644.455c-.189.1-.378.207-.57.31a5.856,5.856,0,0,0-2.1.777,8.53,8.53,0,0,0-1.7,1.133,7.221,7.221,0,0,0-1.343,1.857,23.339,23.339,0,0,0-1.139,2.4,7.521,7.521,0,0,0-.582,2.083c-.266.566-.486,1.176-.73,1.724-.124.282-.245.563-.365.845l-10.654-26.087-1.653.687.13.31-.344.145.467,1.139c-.068.046-.136.093-.2.142l-.087.068-.173.136-.087.071-.176.149-.065.056-.22.2h0c-.235.214-.461.44-.681.665l-.566.585-.108.115-.189.192-.105.108-.269.269-.019.019-.167.161-.105.1c-.043.043-.09.084-.136.124l-.13.121-.21.18-.062.056-.288.229a8.072,8.072,0,0,1-1.238.8c-1.693.876-3.485,1.61-5.138,2.547a14.8,14.8,0,0,0-2.544,1.783,20.215,20.215,0,0,1-3.284,2.869l-.139.074c-2.241,1.151-4.881.461-7.429.412-.381,0-.755,0-1.127.025a14.229,14.229,0,0,0-5.788,2.021c-1.288.721-2.544,1.532-3.807,2.266-.8.461-1.6.963-2.405,1.476a54.36,54.36,0,0,1-6.249,3.64,13.135,13.135,0,0,1-6.191,1.377h-.028a5.161,5.161,0,0,1-.619-.053c-.2,1.625,1.1,2.934,1.966,4.364a4.423,4.423,0,0,1,.734,2.068,3.714,3.714,0,0,1-.062.83,10.423,10.423,0,0,0-.511,3,3.47,3.47,0,0,0,.659,1.628c.551.786,1.316,1.486,1.836,2.306a12.424,12.424,0,0,1,1.3,4.2,8.843,8.843,0,0,0,1.018,2.913,12.443,12.443,0,0,0,2.65,2.684c.176.152.35.31.517.464.124.111.245.229.359.35,1.124,1.148,1.959,2.919,1.281,4.355-.022.05-.046.093-.071.139a1.24,1.24,0,0,0,.17.1c.864.421,1.947-.254,2.656-.969.35-.35.681-.721,1-1.1.864-.96,1.656-2,2.476-3,.223-.269.446-.532.675-.792a11.452,11.452,0,0,1,3.058-2.476,11.233,11.233,0,0,1,1.876-.761c.96-.31,1.95-.539,2.913-.842a23.934,23.934,0,0,0,3.835-1.61,58.991,58.991,0,0,0,6.191-3.838l.31-.2a10.608,10.608,0,0,0,1.842-1.47c.1-.108.195-.22.285-.334.483-.619.8-1.353,1.238-2a6.423,6.423,0,0,1,1.736-1.675c1.91-1.285,4.445-1.774,6.714-2.476h.025a26.093,26.093,0,0,0,10.577-6.28l1.7,4.154q-.263.737-.5,1.489a12.1,12.1,0,0,1-1.427,3.56,2.656,2.656,0,0,0-.539.956,3.1,3.1,0,0,1-.127.768c-.105.211-.325.35-.415.566-.13.31.04.709-.133,1a1.573,1.573,0,0,1-.294.31,2.055,2.055,0,0,0-.56,1.576,5.519,5.519,0,0,1-.139,1.709,4.074,4.074,0,0,1,.4-.207,1.859,1.859,0,0,0-.034.31,3.447,3.447,0,0,0,.108.87,6.869,6.869,0,0,0,.9,1.808,12.843,12.843,0,0,0,.969,1.393,12.693,12.693,0,0,0,2.049,1.832l3.12,2.408-.31,1.3a36.421,36.421,0,0,0-1.4,8.311,35.814,35.814,0,0,0,.251,3.99l.269,2.718c.217,2.188.433,4.377.672,6.565a16.811,16.811,0,0,0,.8,4.092c.737,1.984-.077,4.225.235,6.324.248,1.644.737,3.343.245,4.931-.2.619-.545,1.213-.8,1.826a13.7,13.7,0,0,0-.752,4.866,20.678,20.678,0,0,0,.158,4.333,17.827,17.827,0,0,1,.74,4.432c-.161,2.133-1.721,3.956-1.91,6.089a8.981,8.981,0,0,0,1.384,4.85c.585,1.111-.232,2.547-.542,3.77-.619,2.4.409,4.906,1.662,7.033a.347.347,0,0,0,.158.167c.142.053.275-.09.368-.21a2.53,2.53,0,0,1,.186-.22c0,.1.019.192.025.285,0,.2.015.4.015.619a6.222,6.222,0,0,0,.421,2.291,4.047,4.047,0,0,0,.173.415,1.913,1.913,0,0,0,.31.5,1.891,1.891,0,0,0,1.238.52,16.032,16.032,0,0,0,3.1-.192c1.09-.093,2.182-.053,3.275-.077a.473.473,0,0,0,.245-.053.418.418,0,0,0,.139-.223,2.476,2.476,0,0,0,.053-1.22,8.648,8.648,0,0,0-.232-.969c-.145-.511-.279-1.025-.405-1.548-.025-.1-.046-.192-.068-.288l.049.022q1-2.247,2-4.494a4.047,4.047,0,0,0,.514-2.393,7.033,7.033,0,0,0-.755-1.606,9.43,9.43,0,0,1-.653-4.129l-.037-7.961a17.439,17.439,0,0,0,3.1-6.757,21.856,21.856,0,0,1,.183,10.524,9.8,9.8,0,0,0-.294,1.6c-.121,2.207,1.6,4.076,2.055,6.237a1.405,1.405,0,0,1,.034.508,1.9,1.9,0,0,1-.254.588,9.175,9.175,0,0,0-.619,5.042l.362.059a.96.96,0,0,0,.384.378h0a1.893,1.893,0,0,0,.48.2,11.815,11.815,0,0,0,1.8.275c.873.087,1.749.173,2.625.229.347.022.693.04,1.04.049a10.393,10.393,0,0,1,1.457.1,10.525,10.525,0,0,1,1.546.449c2.256.755,4.782,1.185,6.968.245a3.139,3.139,0,0,0,1.272-.9,1.5,1.5,0,0,0-.375-2.328ZM153.9,273.827c.328.653.656,1.3.929,1.981a6.832,6.832,0,0,1,.52,4.154c-.1.4-.746.712-.743,1.127a.932.932,0,0,0-.05.1l-2.021-4.953A17.664,17.664,0,0,1,153.9,273.827Zm-2.219,10.524a8.566,8.566,0,0,1-1.1-1.891c-.037-.084-.077-.164-.115-.248a.743.743,0,0,0,.294-.22c.31-.39.142-.96.189-1.461a3.157,3.157,0,0,1,.492-1.238l1.9,4.643q-.288.755-.539,1.526a10.833,10.833,0,0,1-1.124-1.111Z" transform="translate(-85.988 -165.009)" fill="url(#linear-gradient)"/>
      <path id="Path_530" data-name="Path 530" d="M315.777,260.807a5.542,5.542,0,0,0,.477,1.857,6.571,6.571,0,0,1-.09,3.634c-.347,1.238-.929,2.547-.486,3.758.1.285.257.545.35.83.384,1.176-.328,2.414-1.108,3.377l3.061,2.145a3.519,3.519,0,0,0,1.548.74,1.211,1.211,0,0,0,1.356-.8c.04-.192,0-.393.037-.588a1.6,1.6,0,0,1,.857-1.189,2.8,2.8,0,0,1,1.483-.276c1.879.1,3.476,1.337,5.185,2.13a20.854,20.854,0,0,0,3.488,1.158,2.8,2.8,0,0,0,2.043,0,1.937,1.937,0,0,0,.848-1.829,5.983,5.983,0,0,0-.65-2.015,5.125,5.125,0,0,1-.6-2.027,16.88,16.88,0,0,1,.761-3.009,6.859,6.859,0,0,0-.947-4.247,17.992,17.992,0,0,1-1.8-4.024,5.881,5.881,0,0,0-.337-1.272,2.9,2.9,0,0,0-.619-.83,6.929,6.929,0,0,0-4.389-1.792,19.891,19.891,0,0,0-4.813.421,10.063,10.063,0,0,0-1.786.424,11.344,11.344,0,0,0-2.349,1.272A3.06,3.06,0,0,0,315.777,260.807Z" transform="translate(-243.406 -183.252)" fill="#464353"/>
      <g id="Group_116" data-name="Group 116" transform="translate(71.505 77.351)" opacity="0.1">
        <path id="Path_531" data-name="Path 531" d="M375.17,295.782a1.361,1.361,0,0,0,.019.275c.1-.907.573-1.758.743-2.665a4.4,4.4,0,0,0,.059-1.1,3.018,3.018,0,0,1-.059.483A15.652,15.652,0,0,0,375.17,295.782Z" transform="translate(-356.511 -285.31)"/>
        <path id="Path_532" data-name="Path 532" d="M318.368,273.04a5.544,5.544,0,0,0-.207-1.857,10.762,10.762,0,0,1-.449-1.442c0,.065-.025.127-.028.192a5.542,5.542,0,0,0,.477,1.857A5.226,5.226,0,0,1,318.368,273.04Z" transform="translate(-316.818 -269.74)"/>
        <path id="Path_533" data-name="Path 533" d="M334.777,313.818a1.771,1.771,0,0,1-.83,1.365,2.8,2.8,0,0,1-2.043,0,20.59,20.59,0,0,1-3.488-1.161c-1.709-.789-3.306-2.024-5.185-2.126a2.8,2.8,0,0,0-1.483.275,1.6,1.6,0,0,0-.857,1.189c-.022.195,0,.4-.037.588a1.213,1.213,0,0,1-1.356.8,3.52,3.52,0,0,1-1.548-.74l-2.752-1.931c-.1.139-.2.275-.31.4l3.061,2.148a3.52,3.52,0,0,0,1.548.74,1.211,1.211,0,0,0,1.356-.8c.04-.192,0-.393.037-.588a1.6,1.6,0,0,1,.857-1.189,2.8,2.8,0,0,1,1.483-.275c1.879.1,3.476,1.337,5.185,2.126A20.587,20.587,0,0,0,331.9,315.8a2.8,2.8,0,0,0,2.043,0,1.937,1.937,0,0,0,.848-1.829C334.793,313.92,334.784,313.87,334.777,313.818Z" transform="translate(-314.89 -298.839)"/>
        <path id="Path_534" data-name="Path 534" d="M317.365,298.249a2.394,2.394,0,0,1,.084.381,2.244,2.244,0,0,0-.084-1c-.093-.285-.248-.545-.35-.83a2.588,2.588,0,0,1-.142-.641,2.91,2.91,0,0,0,.142,1.26C317.117,297.7,317.272,297.968,317.365,298.249Z" transform="translate(-316.248 -287.982)"/>
      </g>
      <path id="Path_535" data-name="Path 535" d="M309.924,668.23a.405.405,0,0,1-.142.223.474.474,0,0,1-.245.053c-1.1.025-2.2,0-3.3.077a15.788,15.788,0,0,1-3.12.192,1.6,1.6,0,0,1-1.548-1.018,4.053,4.053,0,0,1-.173-.415,6.162,6.162,0,0,1-.424-2.291v-.619a4.692,4.692,0,0,0-.09-.675,1.024,1.024,0,0,1,.031-.783,2.737,2.737,0,0,1,2.318-1.025,19.143,19.143,0,0,1,5.649.415c.146.712.31,1.418.483,2.123q.192.777.409,1.548A8.661,8.661,0,0,1,310,667,2.476,2.476,0,0,1,309.924,668.23Z" transform="translate(-233.667 -463.16)" fill="#464353"/>
      <path id="Path_536" data-name="Path 536" d="M311.211,679.636a.406.406,0,0,1-.142.223.474.474,0,0,1-.245.053c-1.1.025-2.2,0-3.3.077a15.787,15.787,0,0,1-3.12.192,1.6,1.6,0,0,1-1.548-1.018,4.053,4.053,0,0,1-.173-.415h.4c1.3,0,2.609-.046,3.913-.046a10.011,10.011,0,0,0,1.179-.065c.39-.046.709-.111,1.065-.155a14.6,14.6,0,0,1,1.6-.065h.44A2.477,2.477,0,0,1,311.211,679.636Z" transform="translate(-234.955 -474.566)" opacity="0.06"/>
      <path id="Path_537" data-name="Path 537" d="M364.223,652.831a3.167,3.167,0,0,1-1.281.9c-2.2.929-4.751.511-7.026-.245a10.711,10.711,0,0,0-1.563-.449,10.509,10.509,0,0,0-1.464-.1c-.35,0-.7-.028-1.049-.05-.885-.056-1.767-.142-2.647-.229a11.946,11.946,0,0,1-1.82-.275,1.933,1.933,0,0,1-.486-.2h0a.746.746,0,0,1-.446-.666c.025-.393.433-.619.792-.789a38.7,38.7,0,0,1,10.081-2.455,4.041,4.041,0,0,0,1.012-.31c.387-.155.427.1.619.384a2.389,2.389,0,0,0,.31.365,3.685,3.685,0,0,0,1.288.755c.836.31,1.73.393,2.566.687a3.513,3.513,0,0,1,.721.347,1.492,1.492,0,0,1,.378,2.328Z" transform="translate(-265.169 -453.509)" fill="#464353"/>
      <path id="Path_538" data-name="Path 538" d="M376.264,658.6a3.166,3.166,0,0,1-1.281.9c-2.2.929-4.751.511-7.026-.245a10.711,10.711,0,0,0-1.563-.449,10.518,10.518,0,0,0-1.464-.1c-.35,0-.7-.028-1.049-.049.285-.269.576-.532.873-.786a2.6,2.6,0,0,1,.734-.483,2.124,2.124,0,0,1,1.043-.071c1.771.245,3.362,1.486,5.147,1.377a6.334,6.334,0,0,0,2.368-.765,4.132,4.132,0,0,0,1.548-1.1,1.787,1.787,0,0,0,.288-.554,1.492,1.492,0,0,1,.378,2.328Z" transform="translate(-277.211 -459.276)" opacity="0.06"/>
      <path id="Path_539" data-name="Path 539" d="M385.854,431.052a2.563,2.563,0,0,1-1.374,1.483c-.972.279-1.907-.594-2.331-1.511a6.525,6.525,0,0,1-.309-4.259c.176-.715.446-1.4.6-2.12a12.911,12.911,0,0,0,.2-1.829,11.187,11.187,0,0,0-.065-2.749c-.5-2.659-2.786-4.643-3.547-7.255a13.54,13.54,0,0,1-.344-4.049,4.162,4.162,0,0,1,.105-1.021,1.6,1.6,0,0,1,.093-.266c.511-1.133,2.024-1.288,3.077-1.947.582-.362,1.9-1.529,2.393-.464a3.5,3.5,0,0,1,.235.74,19.67,19.67,0,0,1,.17,2.953c.189,3.38,1.031,6.754.641,10.115a10.546,10.546,0,0,0-.136,1.733c.084,1.455.994,2.715,1.411,4.107A8.867,8.867,0,0,1,385.854,431.052Z" transform="translate(-287.423 -285.523)" fill="#fbbebe"/>
      <path id="Path_540" data-name="Path 540" d="M384.888,405.8a1.043,1.043,0,0,0-.712,0l-2.1.619a12.973,12.973,0,0,0-2.139.777,5.018,5.018,0,0,0-.851.529,1.593,1.593,0,0,1,.093-.266c.511-1.133,2.024-1.288,3.077-1.947.582-.362,1.9-1.529,2.393-.464A3.5,3.5,0,0,1,384.888,405.8Z" transform="translate(-287.713 -285.509)" opacity="0.1"/>
      <path id="Path_541" data-name="Path 541" d="M375.771,346.76a.947.947,0,0,0-.848-.068l-2.1.619a12.98,12.98,0,0,0-2.139.777,4.916,4.916,0,0,0-1.018.662,13.757,13.757,0,0,1-1.418-5.664c-.1-1.136-.173-2.275-.217-3.4a15.282,15.282,0,0,1,.049-2.439c.118-.929.387-1.836.554-2.758a12.578,12.578,0,0,0,.192-1.634,15.983,15.983,0,0,0-.164-3.587,22.234,22.234,0,0,0-.86-3.714c-.2-.554-.436-1.09-.653-1.634l-.074-.192a22.561,22.561,0,0,1-.956-3.067c-.1-.427-.105-.876-.433-1.167a5.823,5.823,0,0,1,.929-.037h.186a6.943,6.943,0,0,1,3.541,1.238,8.274,8.274,0,0,1,2.934,3.882,17.865,17.865,0,0,1,.845,5.5q.251,5.485.31,10.976a3.5,3.5,0,0,0,.433,2.031,4.146,4.146,0,0,1,.31.449c.146.31.124.653.241.966a4.891,4.891,0,0,0,.294.545A2,2,0,0,1,375.771,346.76Z" transform="translate(-278.461 -226.709)" fill="#464353"/>
      <path id="Path_542" data-name="Path 542" d="M329.629,289.62c-.31-.1-.619-.21-.929-.31l.644.049a1.3,1.3,0,0,1,.285.26Z" transform="translate(-252.921 -205.901)" fill="#fbbebe"/>
      <path id="Path_543" data-name="Path 543" d="M338.877,301.495c-.062.21-.124.421-.192.619a11.833,11.833,0,0,1-.573,1.489,6.928,6.928,0,0,1-1.464,2.123,1.944,1.944,0,0,1-.73.483,2.323,2.323,0,0,1-.718.068q-1.238,0-2.476-.037a8.793,8.793,0,0,1-1.913-.189,6.832,6.832,0,0,1-1.95-.879,11.577,11.577,0,0,1-5.027-6.191,1.026,1.026,0,0,1,.053-.978,1.2,1.2,0,0,1,.789-.269h.037a4.987,4.987,0,0,0,1.885-.647,1.938,1.938,0,0,0,.86-.879,2.371,2.371,0,0,0-.028-1.368l-.687-3.12a3.232,3.232,0,0,0-.548-1.39c.2.071.4.136.619.192,1.913.517,4.005.2,5.881.882a2.506,2.506,0,0,1,1.653,1.473c.362,1.238-.848,2.523-.5,3.761.232.842,1.09,1.328,1.857,1.721l.517.263,1.433.727.2.1.031.015a1.944,1.944,0,0,1,1.086,1A1.857,1.857,0,0,1,338.877,301.495Z" transform="translate(-249.494 -206.606)" fill="#fbbebe"/>
      <path id="Path_544" data-name="Path 544" d="M342.654,324.495a6.683,6.683,0,0,1-.57,2.291,9.358,9.358,0,0,0-.975,4.024c-.238,4.179-1.826,9.153.449,12.663.056.087.111.173.164.263a4.915,4.915,0,0,0-1.018.662,13.758,13.758,0,0,1-1.418-5.664c-.1-1.136-.173-2.275-.217-3.4a15.271,15.271,0,0,1,.05-2.439c.118-.929.387-1.836.554-2.758a12.594,12.594,0,0,0,.192-1.634,15.982,15.982,0,0,0-.164-3.587,22.234,22.234,0,0,0-.86-3.714c-.2-.554-.436-1.09-.653-1.634l-.074-.192a6.928,6.928,0,0,1-1.464,2.123,1.944,1.944,0,0,1-.73.483,2.32,2.32,0,0,1-.718.068q-1.238,0-2.476-.037a8.8,8.8,0,0,1-1.913-.189,6.832,6.832,0,0,1-1.95-.879,11.576,11.576,0,0,1-5.027-6.191,1.026,1.026,0,0,1,.053-.978,1.2,1.2,0,0,1,.789-.269h.037l2.786,3.445a5.57,5.57,0,0,1,.8,1.2.718.718,0,0,0,.248.368.634.634,0,0,0,.31.056h8.716a2.263,2.263,0,0,0-.384-1.3c-.08.019-.189.025-.022-.025a8.772,8.772,0,0,0-.96-2.869,1.977,1.977,0,0,0-.1-.18,3.3,3.3,0,0,1-.458-1,1.271,1.271,0,0,1,1.761.956c.142.31.285.641.412.966,0,.034.031.071.043.105a7.007,7.007,0,0,1,.514,2.009c.019.254.08.576.291.659a.276.276,0,0,0,.105.025,1.17,1.17,0,0,1,1.266.31,2.786,2.786,0,0,1,.619,1.22,6.674,6.674,0,0,0,.44,1.312c.4.761-.21,1.1.511,1.569a2.513,2.513,0,0,1,.848.761,2.377,2.377,0,0,1,.186,1.408Z" transform="translate(-249.494 -222.338)" opacity="0.1"/>
      <path id="Path_545" data-name="Path 545" d="M308.787,662.4c.146.712.31,1.418.483,2.123l-.019.043a14.373,14.373,0,0,0-4.408-1.4,4.884,4.884,0,0,0-3.965,1.3,4.7,4.7,0,0,0-.09-.675,1.024,1.024,0,0,1,.031-.783,2.738,2.738,0,0,1,2.318-1.025A19.145,19.145,0,0,1,308.787,662.4Z" transform="translate(-233.605 -463.187)" opacity="0.1"/>
      <path id="Path_546" data-name="Path 546" d="M365.97,328.37c.145,0,.093,0,.022.025S365.8,328.42,365.97,328.37Z" transform="translate(-278.595 -232.871)" opacity="0.1"/>
      <path id="Path_547" data-name="Path 547" d="M359.27,648.714a26.883,26.883,0,0,0-3.875,3,4.06,4.06,0,0,1-1.223.895,3.572,3.572,0,0,1-1.473.152,50.122,50.122,0,0,1-5.813-.576h0a.746.746,0,0,1-.446-.665c.025-.393.433-.619.792-.789a38.7,38.7,0,0,1,10.081-2.455,4.041,4.041,0,0,0,1.012-.31c.387-.155.427.1.619.384A2.388,2.388,0,0,0,359.27,648.714Z" transform="translate(-265.169 -453.509)" opacity="0.1"/>
      <path id="Path_548" data-name="Path 548" d="M298.015,314.335c.455.405.975.734,1.436,1.127a12.993,12.993,0,0,1,2.786,3.947,2.582,2.582,0,0,1-1.421.1,10.19,10.19,0,0,0,.121,4.138,3.838,3.838,0,0,0-1.384,1.718,11.486,11.486,0,0,0-.452,2.167q-.669,4.832-1.343,9.664a1.5,1.5,0,0,1-.31.87,1.668,1.668,0,0,0-.235.232,1.284,1.284,0,0,0-.108.665c-.019.226-.167.5-.393.464a.489.489,0,0,1-.275-.18,6.32,6.32,0,0,1-.619-.768c-1.826,3.5-2.705,7.28-3.671,11.112a26.916,26.916,0,0,0-1.164,12.295l.272,2.718c.22,2.185.44,4.374.678,6.559a16.507,16.507,0,0,0,.808,4.092c.743,1.984-.081,4.222.235,6.321.248,1.644.74,3.343.245,4.928-.2.635-.545,1.213-.8,1.826a13.708,13.708,0,0,0-.758,4.866,20.427,20.427,0,0,0,.161,4.334c.266,1.483.864,2.934.746,4.432-.164,2.133-1.736,3.956-1.928,6.085a8.932,8.932,0,0,0,1.4,4.847c.591,1.111-.232,2.547-.545,3.77-.619,2.4.412,4.9,1.675,7.03a.337.337,0,0,0,.161.167c.145.053.275-.09.371-.211a4.763,4.763,0,0,1,4.179-1.548,13.988,13.988,0,0,1,4.408,1.4l2.009-4.473a4,4,0,0,0,.517-2.393,6.93,6.93,0,0,0-.761-1.606,9.379,9.379,0,0,1-.656-4.129l-.037-7.955a17.4,17.4,0,0,0,3.126-6.754,21.667,21.667,0,0,1,.186,10.524,9.541,9.541,0,0,0-.31,1.6c-.121,2.207,1.61,4.073,2.071,6.234a1.34,1.34,0,0,1,.037.508,1.913,1.913,0,0,1-.257.588,9.059,9.059,0,0,0-.619,5.042,50.253,50.253,0,0,0,6.565.7,3.691,3.691,0,0,0,1.473-.152,4.067,4.067,0,0,0,1.223-.9,27,27,0,0,1,4.6-3.482,10.716,10.716,0,0,0-3.761-3.714c.5-.734,1.634-.675,2.3-1.263a2.167,2.167,0,0,0,.619-1.22A8.286,8.286,0,0,0,320.24,407a43.631,43.631,0,0,0-2.167-6.918,26.585,26.585,0,0,1-1.164-2.8c-.811-2.668-.245-5.572-.857-8.3a5.718,5.718,0,0,1-.294-2.643c.341-1.34,1.857-2.136,2.191-3.479,1.2-4.782,1.411-9.738,2.092-14.619a18.782,18.782,0,0,0,.245-2.82c0-.987-.176-1.966-.248-2.95-.279-3.94.981-7.871.659-11.809a14.857,14.857,0,0,0-2.328-6.81c-2.275-3.513-.687-8.484-.449-12.663a9.311,9.311,0,0,1,.972-4.024,6.6,6.6,0,0,0,.573-2.291,2.368,2.368,0,0,0-.173-1.445,2.442,2.442,0,0,0-.845-.761c-.721-.471-.111-.811-.511-1.572a6.606,6.606,0,0,1-.44-1.312,2.761,2.761,0,0,0-.619-1.216,1.17,1.17,0,0,0-1.266-.31c-.294,0-.375-.39-.4-.684a9.644,9.644,0,0,0-.966-3.08,1.681,1.681,0,0,0-.746-.956,1.705,1.705,0,0,0-1.018,0,3.289,3.289,0,0,0,.461,1.006A8.74,8.74,0,0,1,314,317.585c-.31.093.31,0,0,0a2.167,2.167,0,0,1,.405,1.328h-8.713a.619.619,0,0,1-.31-.056.743.743,0,0,1-.251-.368,5.366,5.366,0,0,0-.8-1.2l-3.064-3.779a.774.774,0,0,0-.263-.238.712.712,0,0,0-.387,0A6.961,6.961,0,0,0,298.015,314.335Z" transform="translate(-226.625 -222.427)" fill="#aa80ff"/>
      <path id="Path_549" data-name="Path 549" d="M344.229,482.209a2.953,2.953,0,0,1,1.507.39,1.52,1.52,0,0,1,.749,1.306,3.462,3.462,0,0,1-.808,1.548,4.15,4.15,0,0,0-.477.978.393.393,0,0,0-.025.251c.037.118.164.176.272.229a2.325,2.325,0,0,1,1.365,2.031c-.028,1.207-1.207,2.185-1.142,3.4a6.991,6.991,0,0,0,.13.755,5.77,5.77,0,0,1-.418,3.061c-.375.972-.885,1.885-1.288,2.848a20.2,20.2,0,0,0-1.238,8.357,16.113,16.113,0,0,1-1.238,5.609,80.627,80.627,0,0,0,.279-11.143c-.043-1.009-.17-1.962-.124-2.975.074-1.606.972-3.067,1.2-4.643a22.88,22.88,0,0,0,.065-2.727c.043-1.857.548-3.69.582-5.553C343.666,484.621,343.545,483.265,344.229,482.209Z" transform="translate(-261.841 -339.092)" opacity="0.1"/>
      <path id="Path_550" data-name="Path 550" d="M297.551,317.073a8.486,8.486,0,0,0-1.715,1.133,7.3,7.3,0,0,0-1.356,1.857,23.72,23.72,0,0,0-1.148,2.4,5.352,5.352,0,0,0-.5,3.355,11.557,11.557,0,0,0,1.576,2.684,22.848,22.848,0,0,1,1.254,2.925c.545,1.309,1.291,2.529,1.829,3.841a6.8,6.8,0,0,1,.523,4.151c-.1.4-.752.715-.752,1.127,0,.681.984,1.421,1.637,1.619a2.45,2.45,0,0,0,2.188-.619,8.05,8.05,0,0,0,2.325-3.584,36.679,36.679,0,0,0,1.647-6.751c.285-1.678.551-3.358.7-5.048a12.851,12.851,0,0,0-.22-4.556,7.738,7.738,0,0,0-2.114-3.516,5.878,5.878,0,0,0-3.293-1.842A5.427,5.427,0,0,0,297.551,317.073Z" transform="translate(-228.08 -224.503)" fill="#464353"/>
      <path id="Path_551" data-name="Path 551" d="M292.933,408.111a1.48,1.48,0,0,1-.69,1.031,4.064,4.064,0,0,1-1.179.483,4.9,4.9,0,0,1-2.547.251,5.113,5.113,0,0,1-1.789-1.018l-9.373-7.175a12.655,12.655,0,0,1-2.065-1.832,13.194,13.194,0,0,1-.978-1.39,6.809,6.809,0,0,1-.91-1.808,3.31,3.31,0,0,1-.111-.87,1.637,1.637,0,0,1,.2-.8c.226-.378.709-.455,1.105-.56a11.6,11.6,0,0,1,4.077-.31.554.554,0,0,1,.551.375c.207.381.387.777.573,1.173a8.481,8.481,0,0,0,1.105,1.891,15.949,15.949,0,0,0,1.377,1.328c.991.929,1.8,2.043,2.857,2.9a23.86,23.86,0,0,0,4.1,2.306,7.574,7.574,0,0,1,3.467,3.08A1.8,1.8,0,0,1,292.933,408.111Z" transform="translate(-214.661 -278.226)" fill="#fbbebe"/>
      <path id="Path_552" data-name="Path 552" d="M337.607,260.645a7.664,7.664,0,1,1-.214-1.8A7.664,7.664,0,0,1,337.607,260.645Z" transform="translate(-248.486 -180.817)" opacity="0.1"/>
      <path id="Path_553" data-name="Path 553" d="M337.607,259.645a7.664,7.664,0,1,1-.214-1.8A7.664,7.664,0,0,1,337.607,259.645Z" transform="translate(-248.486 -180.127)" fill="#fbbebe"/>
      <path id="Path_554" data-name="Path 554" d="M279.793,395.652a1.812,1.812,0,0,1-1.312.053c-1.721-.384-3.622-.659-5.191.077a1.637,1.637,0,0,1,.2-.8c.226-.378.709-.455,1.105-.56a11.6,11.6,0,0,1,4.077-.31.554.554,0,0,1,.551.375C279.428,394.86,279.607,395.256,279.793,395.652Z" transform="translate(-214.662 -278.226)" opacity="0.1"/>
      <path id="Path_555" data-name="Path 555" d="M275.737,347.5a12.079,12.079,0,0,1-1.439,3.56,2.631,2.631,0,0,0-.545.953,2.972,2.972,0,0,1-.127.768c-.105.21-.328.35-.418.566-.133.31.04.709-.136,1a1.486,1.486,0,0,1-.294.31,2.166,2.166,0,0,0-.536,1.588,5.4,5.4,0,0,1-.142,1.706c1.634-.975,3.714-.684,5.572-.269.517.115,1.158.2,1.492-.214s.142-.96.189-1.458a5.792,5.792,0,0,1,.783-1.78,21.184,21.184,0,0,0,.653-2.1c.492-1.458,1.548-2.646,2.226-4.024a3.868,3.868,0,0,0,.44-1.529,4.563,4.563,0,0,0-.529-1.984,27.14,27.14,0,0,0-2.29-4.089c-.393-.579-1.071-1.65-1.681-.724a17.348,17.348,0,0,0-1.17,2.513,46.009,46.009,0,0,0-2.046,5.209Z" transform="translate(-213.84 -240.5)" fill="#464353"/>
      <path id="Path_556" data-name="Path 556" d="M335.075,277.521a6.256,6.256,0,0,1-5.008-1.978.767.767,0,0,1-.223-.362.727.727,0,0,1,.142-.508c.371-.573,1.012-.95,1.309-1.566a4.973,4.973,0,0,0,.223-2c.05-1.21.526-2.408.566-3.6a3.761,3.761,0,0,0-.068-.91,5.7,5.7,0,0,1-.26-1.371c.04-.907.857-1.613.994-2.507.176-1.139-.768-2.13-1.718-2.786a10.236,10.236,0,0,0-2.34-1.21,7.622,7.622,0,0,0-1.572-.381,6.129,6.129,0,0,0-2.962.331,4.838,4.838,0,0,0-1.1.588,1.492,1.492,0,0,0-.492.511,1.662,1.662,0,0,0-.13.74,7.887,7.887,0,0,1-.48,3.714c-.31.591-.836,1.071-1.093,1.7a2.821,2.821,0,0,0-.2.814,8.2,8.2,0,0,0-.046.873,9.1,9.1,0,0,0,.83,4.767,12.422,12.422,0,0,1,.8,1.334,1.52,1.52,0,0,1-.077,1.483,1.686,1.686,0,0,1-.619.464,4.952,4.952,0,0,1-3.959.142,5.018,5.018,0,0,0,1.17-5.6,3.3,3.3,0,0,1-.427-1.238,3.142,3.142,0,0,1,.31-1.133,6.191,6.191,0,0,0,.189-3.628,13.229,13.229,0,0,1-.576-2.207,6.677,6.677,0,0,1,.074-1.715,5.572,5.572,0,0,1,3.817-4.392c.158-.053.31-.1.483-.145a10.3,10.3,0,0,1,2.287-.245,17.365,17.365,0,0,1,5.117.344,6.865,6.865,0,0,1,2.65,1.362,4.782,4.782,0,0,1,1.281,1.693,5.879,5.879,0,0,1,.362,1.17c.071.331.124.665.176,1a22.46,22.46,0,0,1,.35,7.184c-.158.929-.433,1.857-.557,2.8A16.949,16.949,0,0,0,335.075,277.521Z" transform="translate(-245.249 -182.533)" fill="#464353"/>
      <circle id="Ellipse_12" data-name="Ellipse 12" cx="0.576" cy="0.576" r="0.576" transform="translate(78.253 96.895)" fill="#fff"/>
      <circle id="Ellipse_13" data-name="Ellipse 13" cx="0.576" cy="0.576" r="0.576" transform="translate(87.969 96.623)" fill="#fff"/>
      <path id="Path_557" data-name="Path 557" d="M335.788,234.622l-1.238-2.337a2.261,2.261,0,0,1,.257-.26.981.981,0,0,1,.6-.142Z" transform="translate(-256.96 -166.247)" opacity="0.1"/>
      <path id="Path_558" data-name="Path 558" d="M344.671,230.633l-1.4,2.074-.8-2.275a2.532,2.532,0,0,1,1.08-.2A3.59,3.59,0,0,1,344.671,230.633Z" transform="translate(-262.428 -165.106)" opacity="0.1"/>
      <g id="Group_117" data-name="Group 117" transform="translate(72.341 75.132)" opacity="0.1">
        <path id="Path_559" data-name="Path 559" d="M322.168,316.212a1.687,1.687,0,0,1-.619.464,4.974,4.974,0,0,1-3.519.294,4.817,4.817,0,0,1-.44.467,4.952,4.952,0,0,0,3.959-.142,1.686,1.686,0,0,0,.619-.464,1.334,1.334,0,0,0,.2-1.071A1.1,1.1,0,0,1,322.168,316.212Z" transform="translate(-317.59 -299.297)"/>
        <path id="Path_560" data-name="Path 560" d="M320.193,276.777a6.1,6.1,0,0,1,.176,1.238,6.167,6.167,0,0,0-.176-1.857,13.233,13.233,0,0,1-.576-2.207,1.858,1.858,0,0,0-.015-.291,6.908,6.908,0,0,0,.015.91A13.234,13.234,0,0,0,320.193,276.777Z" transform="translate(-318.973 -270.228)"/>
        <path id="Path_561" data-name="Path 561" d="M371.877,291.286a13.538,13.538,0,0,0,.167-2.476,12.9,12.9,0,0,1-.167,1.857c-.158.929-.433,1.857-.557,2.8a9.771,9.771,0,0,0-.071,1.532,9.149,9.149,0,0,1,.071-.913C371.444,293.143,371.719,292.224,371.877,291.286Z" transform="translate(-354.636 -280.688)"/>
        <path id="Path_562" data-name="Path 562" d="M320.377,298.966a5.088,5.088,0,0,1-.39-.956,1.4,1.4,0,0,0-.037.34,3.3,3.3,0,0,0,.427,1.238,4.679,4.679,0,0,1,.387,1.641A4.8,4.8,0,0,0,320.377,298.966Z" transform="translate(-319.219 -287.041)"/>
        <path id="Path_563" data-name="Path 563" d="M363.6,287.834a4.059,4.059,0,0,1,.059.427v-.136a3.759,3.759,0,0,0-.068-.91c-.068-.325-.18-.647-.232-.975a1.369,1.369,0,0,0-.028.223A5.7,5.7,0,0,0,363.6,287.834Z" transform="translate(-349.172 -278.914)"/>
        <path id="Path_564" data-name="Path 564" d="M357.392,317.938a1.633,1.633,0,0,1-.133-.158.64.64,0,0,0-.09.415.768.768,0,0,0,.223.362,6.256,6.256,0,0,0,5.008,1.978c-.053-.2-.105-.405-.155-.619A6.247,6.247,0,0,1,357.392,317.938Z" transform="translate(-344.915 -300.691)"/>
        <path id="Path_565" data-name="Path 565" d="M343.531,267.038a.136.136,0,0,1,0-.034c.176-1.139-.768-2.13-1.718-2.786a10.236,10.236,0,0,0-2.34-1.21,7.617,7.617,0,0,0-1.572-.381,6.129,6.129,0,0,0-2.962.331,4.838,4.838,0,0,0-1.1.588,1.492,1.492,0,0,0-.492.511,1.663,1.663,0,0,0-.13.74v.619a1.663,1.663,0,0,1,.13-.74,1.493,1.493,0,0,1,.492-.511,4.838,4.838,0,0,1,1.1-.588,6.129,6.129,0,0,1,2.962-.331,7.619,7.619,0,0,1,1.572.381,10.237,10.237,0,0,1,2.34,1.21A3.7,3.7,0,0,1,343.531,267.038Z" transform="translate(-328.377 -262.572)"/>
        <path id="Path_566" data-name="Path 566" d="M328.714,276.349c-.31.591-.836,1.071-1.093,1.7a2.821,2.821,0,0,0-.2.814,8.2,8.2,0,0,0-.046.873v.619a8.2,8.2,0,0,1,.047-.874,2.819,2.819,0,0,1,.195-.813,19.478,19.478,0,0,1,1.093-1.7,6.215,6.215,0,0,0,.48-3.058A5.164,5.164,0,0,1,328.714,276.349Z" transform="translate(-324.35 -270.4)"/>
      </g>
      <path id="Path_567" data-name="Path 567" d="M335.907,257.69a.9.9,0,0,1-.149.164,1.417,1.417,0,0,1-.362.217c-.9.39-.864-.882-1.334-1.319a1.6,1.6,0,0,0-1.046-.31q-1.359-.068-2.721-.121c-1.514-.056-3.024-.084-4.535-.049q-1.086.019-2.167.09a5.9,5.9,0,0,0-2.445.56,2.591,2.591,0,0,0-.653.511c-.17.186-.35.421-.585.464a5.572,5.572,0,0,1,3.816-4.392,7.661,7.661,0,0,1,10.524,1.316,4.783,4.783,0,0,1,1.281,1.693A5.88,5.88,0,0,1,335.907,257.69Z" transform="translate(-246.851 -180.132)" opacity="0.1"/>
      <path id="Path_568" data-name="Path 568" d="M334.687,242.412c-.9.39-.864-.882-1.334-1.319a1.6,1.6,0,0,0-1.046-.31,82.5,82.5,0,0,0-9.422-.08,4.446,4.446,0,0,0-3.1,1.071c-.192.21-.393.483-.681.474-.1-.619-.164-1.263-.21-1.9a2.11,2.11,0,0,1,.037-.712c.077-.266.254-.492.344-.752a3.014,3.014,0,0,0,.093-1.015,7.336,7.336,0,0,1,3.609-6.24,3.278,3.278,0,0,0,.752-.508,2.268,2.268,0,0,1,.257-.26.981.981,0,0,1,.6-.142h.44a4,4,0,0,0,1.161-.31,2.532,2.532,0,0,1,1.08-.2,3.591,3.591,0,0,1,1.121.405,2.712,2.712,0,0,0,.523.189c.282.065.573.062.854.118a4.169,4.169,0,0,1,1.281.57,6.115,6.115,0,0,1,1.288.929,5.7,5.7,0,0,1,1,1.622,11.617,11.617,0,0,1,.929,2.575c.251,1.281.127,2.668.721,3.832C335.343,241.177,335.674,241.988,334.687,242.412Z" transform="translate(-246.142 -165.092)" fill="#fed253"/>
      <path id="Path_569" data-name="Path 569" d="M319.25,259.993s6.417-5.838,15.972-1C335.222,259,324.435,256.542,319.25,259.993Z" transform="translate(-246.396 -183.644)" opacity="0.1"/>
      <path id="Path_570" data-name="Path 570" d="M88.9,296.806c-.873-1.43-2.185-2.739-1.981-4.361a12.755,12.755,0,0,0,6.881-1.328,56.864,56.864,0,0,0,6.305-3.637c.811-.511,1.619-1.012,2.424-1.476,1.275-.73,2.541-1.548,3.838-2.263a14.486,14.486,0,0,1,5.838-2.018,10.641,10.641,0,0,1,1.136-.028c2.569.049,5.231.74,7.491-.412l.139-.074a19.994,19.994,0,0,0,3.312-2.866,14.794,14.794,0,0,1,2.566-1.783c1.668-.929,3.476-1.671,5.182-2.547a7.855,7.855,0,0,0,1.238-.792l.291-.232.065-.056c.071-.059.142-.118.21-.18l.133-.118.136-.124.105-.1.17-.161.019-.022.269-.266.108-.108.189-.195.111-.111c.189-.2.378-.393.57-.585s.452-.452.684-.665h0l.223-.2.065-.056.18-.149.084-.071.176-.136.087-.068c.087-.065.176-.127.266-.189a1.941,1.941,0,0,1,.26-.152l-.579-1.4,1.665-.687,22.967,55.731-1.668.687-13.137-31.882-.093.093a26.372,26.372,0,0,1-10.861,6.463h-.025c-2.287.69-4.847,1.179-6.773,2.461a6.5,6.5,0,0,0-1.749,1.675c-.452.644-.768,1.377-1.238,2-.09.115-.189.226-.288.331a10.761,10.761,0,0,1-1.857,1.473l-.294.2a60.191,60.191,0,0,1-6.222,3.835,24.545,24.545,0,0,1-3.866,1.609c-.969.31-1.969.536-2.937.842a11.506,11.506,0,0,0-1.891.761,13.84,13.84,0,0,0-4.092,3.634c-1.043,1.257-2.034,2.588-3.179,3.733-.718.712-1.811,1.387-2.677.969l-.176-.1c.028-.046.05-.093.074-.142.684-1.433-.158-3.2-1.291-4.352-.118-.121-.238-.238-.362-.35s-.347-.31-.523-.464a12.6,12.6,0,0,1-2.671-2.681A8.744,8.744,0,0,1,92.9,310.8a12.377,12.377,0,0,0-1.309-4.2c-.52-.82-1.294-1.52-1.857-2.306a3.513,3.513,0,0,1-.681-1.591,10.325,10.325,0,0,1,.517-2.993,3.736,3.736,0,0,0,.065-.83,4.392,4.392,0,0,0-.734-2.074Z" transform="translate(-85.966 -190.628)" fill="url(#linear-gradient-2)"/>
      <rect id="Rectangle_1" data-name="Rectangle 1" width="1.774" height="59.266" transform="translate(75.148 131.826) rotate(157.6)" fill="#d6d8e1"/>
      <path id="Path_571" data-name="Path 571" d="M93.577,311.764a12.137,12.137,0,0,1,1.285,4.129,8.7,8.7,0,0,0,1.012,2.866,12.455,12.455,0,0,0,2.625,2.634c.173.152.347.31.514.458.121.108.241.226.356.341,1.114,1.13,1.941,2.872,1.269,4.281a1.183,1.183,0,0,1-.071.139,1.414,1.414,0,0,0,.17.1c.854.415,1.928-.248,2.634-.95,1.127-1.127,2.1-2.433,3.126-3.668a13.552,13.552,0,0,1,4.024-3.575,11.146,11.146,0,0,1,1.857-.749c.95-.31,1.935-.529,2.888-.826a24.308,24.308,0,0,0,3.8-1.582,59.593,59.593,0,0,0,6.129-3.773l.291-.2a10.632,10.632,0,0,0,1.826-1.445c.1-.105.2-.214.285-.328.477-.619.789-1.328,1.238-1.962a6.4,6.4,0,0,1,1.721-1.647c1.894-1.26,4.408-1.743,6.658-2.42h.025a25.983,25.983,0,0,0,10.679-6.355,1.74,1.74,0,0,0,.535-.786,1.815,1.815,0,0,0-.365-1.254c-.263-.452-.52-.9-.774-1.362a60.823,60.823,0,0,1-3.052-6.417c-.2-.483-.384-.963-.566-1.449q-.7-1.857-1.281-3.767c-.127-.421-.251-.845-.368-1.269-.022-.081-.046-.167-.068-.26-.514-2.065-1.2-6.9-3.318-5.451a12.249,12.249,0,0,0-1.749,1.52c-.412.418-.814.848-1.238,1.263a12.53,12.53,0,0,1-1.093.956,8.027,8.027,0,0,1-1.238.78c-1.681.86-3.457,1.582-5.095,2.5a14.483,14.483,0,0,0-2.526,1.752,19.6,19.6,0,0,1-3.256,2.82l-.136.074c-2.222,1.13-4.838.452-7.367.4a11.1,11.1,0,0,0-1.114.028,14.106,14.106,0,0,0-5.742,1.984c-1.275.706-2.52,1.5-3.773,2.226-.792.455-1.585.947-2.383,1.452a54.514,54.514,0,0,1-6.191,3.578,12.721,12.721,0,0,1-6.766,1.3c-.2,1.594,1.086,2.882,1.947,4.287a4.256,4.256,0,0,1,.727,2.034,3.593,3.593,0,0,1-.059.814,10.632,10.632,0,0,0-.508,2.947,3.421,3.421,0,0,0,.666,1.557C92.305,310.269,93.063,310.959,93.577,311.764Z" transform="translate(-87.396 -195.988)" fill="#f86d70"/>
      <path id="Path_572" data-name="Path 572" d="M306.974,414.71a26.982,26.982,0,0,0,5.46,3.625c2.749,1.26.929,5.779.929,5.779a4.984,4.984,0,0,1-4.953-2.167C306.37,419.112,306.974,414.71,306.974,414.71Z" transform="translate(-237.862 -292.486)" fill="#fbbebe"/>
      <path id="Path_573" data-name="Path 573" d="M732.882,544.638s-7.181,9.45-13.14,9.527-9.456,3.981-6.627,6.42,33.658-1.393,33.658-1.393.291-11.614-2.38-13.31S732.882,544.638,732.882,544.638Z" transform="translate(-517.659 -382.16)" fill="#444176"/>
      <path id="Path_574" data-name="Path 574" d="M1021.9,576.314s1.1,7.484-2.3,12.589,6.135,7.073,6.135,7.073,6.924,1.928,7.429-4.912.34-12.072-.31-12.629-1.192-4.4-1.192-4.4Z" transform="translate(-729.459 -402.491)" fill="#444176"/>
      <path id="Path_575" data-name="Path 575" d="M677.45,449.022s-.251-24.208,23.7-34.048l5.562-10.583,2.668-6.5a15.817,15.817,0,0,1,11.171-9.428l4.315-.969,1.334-5.621a15.811,15.811,0,0,1,12.632-11.929,44.237,44.237,0,0,1,7.955-.743,6.847,6.847,0,0,1,5.816,3.4h0s22.695-.251,23.7,12.106c0,0,2.272,11.344,5.55,13.362,0,0,5.547-1.26,11.094,6.81L799,425.56s15.885,14.876,11.094,28.477c0,0-6.556,9.329-39.84,3.024,0,0-35.553,10.834-54.478-4.024C715.776,453.055,684.26,459.107,677.45,449.022Z" transform="translate(-493.721 -261.063)" fill="#a8a8a8"/>
      <path id="Path_576" data-name="Path 576" d="M728.77,549.19s5.045-7.06,4.792-12.106,1.189-17.334,1.189-17.334" transform="translate(-529.156 -365.013)" fill="none" stroke="#000" stroke-miterlimit="10" stroke-width="1" opacity="0.1"/>
      <path id="Path_577" data-name="Path 577" d="M788.24,501.912s5.042-9.329,4.538-14.372c0,0,5.3-9.6,9.329-8.828" transform="translate(-570.219 -336.648)" fill="none" stroke="#000" stroke-miterlimit="10" stroke-width="1" opacity="0.1"/>
      <path id="Path_578" data-name="Path 578" d="M877.85,447.975s13.867-5.042,14.625-9.075" transform="translate(-632.091 -309.189)" fill="none" stroke="#000" stroke-miterlimit="10" stroke-width="1" opacity="0.1"/>
      <path id="Path_579" data-name="Path 579" d="M894.14,487.133s14.625-6.556,14.625-8.323h7.308s10.592,13.87,9.332,19.921" transform="translate(-643.339 -336.745)" fill="none" stroke="#000" stroke-miterlimit="10" stroke-width="1" opacity="0.1"/>
      <path id="Path_580" data-name="Path 580" d="M847.157,538.03s-14.121-1.009-19.166,3.027-14.121,6.051-14.121,6.051-5.3,11.347-7.314,13.362-5.3,9.079-5.3,9.079" transform="translate(-579.208 -377.557)" fill="none" stroke="#000" stroke-miterlimit="10" stroke-width="1" opacity="0.1"/>
      <path id="Path_581" data-name="Path 581" d="M949.54,581.46a36.881,36.881,0,0,0,3.529,8.32c2.018,3.027,5.042,13.867,5.042,13.867" transform="translate(-681.591 -407.622)" fill="none" stroke="#000" stroke-miterlimit="10" stroke-width="1" opacity="0.1"/>
      <path id="Path_582" data-name="Path 582" d="M1026.11,631.15s3.2,8.905,6.014,8.992" transform="translate(-734.46 -441.931)" fill="none" stroke="#000" stroke-miterlimit="10" stroke-width="1" opacity="0.1"/>
      <path id="Path_583" data-name="Path 583" d="M958.38,507.66s8.314,2.247,11.79,7.692,14.093,10.382,14.093,10.382" transform="translate(-687.695 -356.665)" fill="none" stroke="#000" stroke-miterlimit="10" stroke-width="1" opacity="0.1"/>
      <path id="Path_584" data-name="Path 584" d="M969.9,421s0,11.6,3.278,11.6a92.918,92.918,0,0,1,10.592,1.26" transform="translate(-695.649 -296.829)" fill="none" stroke="#000" stroke-miterlimit="10" stroke-width="1" opacity="0.1"/>
      <path id="Path_585" data-name="Path 585" d="M906.566,376.5s-.839,20.036-5.126,25.224" transform="translate(-648.38 -266.103)" fill="none" stroke="#000" stroke-miterlimit="10" stroke-width="1" opacity="0.1"/>
      <g id="Group_118" data-name="Group 118" transform="translate(199.849 107.896)" opacity="0.05">
        <path id="Path_586" data-name="Path 586" d="M944.7,424.779,938.645,404.1c-5.547-8.069-11.094-6.81-11.094-6.81-3.278-2.018-5.547-13.366-5.547-13.366-1.009-12.357-23.7-12.1-23.7-12.1h0a6.847,6.847,0,0,0-5.828-3.4c-1.071,0-2.167.034-3.262.124q.929.093,1.78.263l1.764,3.027s22.692-.254,23.7,12.1c0,0,2.272,11.347,5.55,13.366,0,0,5.547-1.263,11.094,6.81l6.051,20.677s15.885,14.876,11.094,28.477c0,0-3.235,4.6-16.69,5.16,18.142.665,22.237-5.16,22.237-5.16C960.582,439.656,944.7,424.779,944.7,424.779Z" transform="translate(-839.784 -368.42)"/>
        <path id="Path_587" data-name="Path 587" d="M745.685,639.29a117.755,117.755,0,0,1-16.154,1.767,103.027,103.027,0,0,0,17.123-1.025C746.325,639.782,746,639.541,745.685,639.29Z" transform="translate(-729.53 -555.447)"/>
        <path id="Path_588" data-name="Path 588" d="M904.569,652.33a103.568,103.568,0,0,1-23.809,3.764,100.978,100.978,0,0,0,27.171-3.167C906.835,652.745,905.724,652.537,904.569,652.33Z" transform="translate(-833.95 -564.451)"/>
      </g>
      <path id="Path_589" data-name="Path 589" d="M306.73,771.029s6.937-.214,9.026-1.7,10.666-3.266,11.186-.879,10.422,11.871,2.591,11.935-18.191-1.22-20.277-2.492S306.73,771.029,306.73,771.029Z" transform="translate(-237.751 -535.925)" fill="#a8a8a8"/>
      <path id="Path_590" data-name="Path 590" d="M329.676,787.918c-7.831.065-18.194-1.22-20.28-2.476-1.588-.969-2.222-4.442-2.433-6.042h-.232s.44,5.593,2.526,6.862,12.449,2.554,20.277,2.492c2.263-.019,3.043-.823,3-2.015C332.22,787.457,331.356,787.906,329.676,787.918Z" transform="translate(-237.751 -544.293)" opacity="0.2"/>
      <path id="Path_591" data-name="Path 591" d="M781.544,705.293s-8.169-1.634-10.345-3.813-11.979-5.986-13.068-3.266-14.7,11.979-5.445,13.619,21.779,2.167,24.5,1.089S781.544,705.293,781.544,705.293Z" transform="translate(-543.455 -487.585)" fill="#a8a8a8"/>
      <path id="Path_592" data-name="Path 592" d="M752.691,728.551c9.258,1.631,21.779,2.167,24.5,1.086,2.071-.829,3.513-4.813,4.083-6.667l.272.059s-1.634,6.531-4.355,7.621-15.245.545-24.5-1.09c-2.671-.47-3.436-1.579-3.148-2.978C749.772,727.5,750.7,728.207,752.691,728.551Z" transform="translate(-543.46 -505.33)" opacity="0.2"/>
      <path id="Path_593" data-name="Path 593" d="M556.142,142.454H554.2a1.362,1.362,0,0,0,0-2.724H538.449a1.362,1.362,0,1,0,0,2.724h1.944a1.362,1.362,0,0,0,0,2.721h-2.721a1.362,1.362,0,1,0,0,2.724h15.749a1.362,1.362,0,0,0,0-2.724h2.721a1.362,1.362,0,1,0,0-2.721Z" transform="translate(-396.269 -102.621)" fill="#aa80ff" opacity="0.1"/>
      <path id="Path_594" data-name="Path 594" d="M753.727,297.267h-1.944a1.362,1.362,0,0,0,0-2.721H736.019a1.362,1.362,0,1,0,0,2.721h1.944a1.362,1.362,0,0,0,0,2.721h-2.721a1.362,1.362,0,1,0,0,2.724h15.746a1.362,1.362,0,1,0,0-2.724h2.739a1.362,1.362,0,1,0,0-2.721Z" transform="translate(-532.685 -209.516)" fill="#aa80ff" opacity="0.1"/>
      <path id="Path_595" data-name="Path 595" d="M460.918,268.627h-1.944a1.362,1.362,0,1,0,0-2.721H443.222a1.362,1.362,0,1,0,0,2.721h1.944a1.362,1.362,0,1,0,0,2.721h-2.724a1.362,1.362,0,1,0,0,2.724h15.749a1.362,1.362,0,0,0,0-2.724h2.721a1.362,1.362,0,1,0,0-2.721Z" transform="translate(-330.515 -189.741)" fill="#aa80ff" opacity="0.1"/>
    </g>
  </g>
</svg>
