<svg version="1.2" baseProfile="tiny-ps" xmlns="http://www.w3.org/2000/svg" viewBox="0 0 2770 2800" width="350" height="354">
	<title>20943638-ai</title>
	<defs>
		<linearGradient id="grd1" gradientUnits="userSpaceOnUse"  x1="2044.729" y1="3784.039" x2="110.09" y2="2091.231">
			<stop offset="0" stop-color="#dae3fe"  />
			<stop offset="1" stop-color="#e9effd"  />
		</linearGradient>
		<linearGradient id="grd2" gradientUnits="userSpaceOnUse"  x1="328.454" y1="1846.259" x2="1250.351" y2="1278.536">
			<stop offset="0" stop-color="#ff928e"  />
			<stop offset="1" stop-color="#2fb9b7"  />
		</linearGradient>
		<linearGradient id="grd3" gradientUnits="userSpaceOnUse"  x1="1794.846" y1="785.618" x2="3364.735" y2="-263.289">
			<stop offset="0" stop-color="#92d3d2"  />
			<stop offset="1" stop-color="#92d3d2"  />
		</linearGradient>
		<linearGradient id="grd4" gradientUnits="userSpaceOnUse"  x1="397.092" y1="1762.496" x2="1028.174" y2="1762.496">
			<stop offset="0" stop-color="#ff928e"  />
			<stop offset="1" stop-color="#2fb9b7"  />
		</linearGradient>
		<linearGradient id="grd5" gradientUnits="userSpaceOnUse"  x1="1449.74" y1="2179.647" x2="441.325" y2="3202.066">
			<stop offset="0" stop-color="#92d3d2"  />
			<stop offset="1" stop-color="#92d3d2"  />
		</linearGradient>
		<linearGradient id="grd6" gradientUnits="userSpaceOnUse"  x1="332.393" y1="2869.342" x2="2384.453" y2="1482.624">
			<stop offset="0" stop-color="#ff928e"  />
			<stop offset="1" stop-color="#2fb9b7"  />
		</linearGradient>
		<linearGradient id="grd7" gradientUnits="userSpaceOnUse"  x1="2781.432" y1="1595.781" x2="2180.384" y2="3481.827">
			<stop offset="0" stop-color="#92d3d2"  />
			<stop offset="1" stop-color="#92d3d2"  />
		</linearGradient>
		<linearGradient id="grd8" gradientUnits="userSpaceOnUse"  x1="3018.793" y1="966.734" x2="2133.089" y2="2865.629">
			<stop offset="0" stop-color="#92d3d2"  />
			<stop offset="1" stop-color="#2fb9b7"  />
		</linearGradient>
		<linearGradient id="grd9" gradientUnits="userSpaceOnUse"  x1="1778.147" y1="2896.002" x2="1223.671" y2="1942.574">
			<stop offset="0" stop-color="#92d3d2"  />
			<stop offset="1" stop-color="#2fb9b7"  />
		</linearGradient>
		<linearGradient id="grd10" gradientUnits="userSpaceOnUse"  x1="1663.53" y1="1829.088" x2="775.298" y2="2880.597">
			<stop offset="0" stop-color="#92d3d2"  />
			<stop offset="1" stop-color="#2fb9b7"  />
		</linearGradient>
		<linearGradient id="grd11" gradientUnits="userSpaceOnUse"  x1="783.183" y1="2989.04" x2="-332.53" y2="1859.801">
			<stop offset="0" stop-color="#92d3d2"  />
			<stop offset="1" stop-color="#2fb9b7"  />
		</linearGradient>
		<linearGradient id="grd12" gradientUnits="userSpaceOnUse"  x1="968.651" y1="1000.292" x2="1957.859" y2="-229.876">
			<stop offset="0" stop-color="#ff928e"  />
			<stop offset="1" stop-color="#92d3d2"  />
		</linearGradient>
		<linearGradient id="grd13" gradientUnits="userSpaceOnUse"  x1="1264.719" y1="1279.656" x2="1176.216" y2="1279.656">
			<stop offset="0" stop-color="#09005d"  />
			<stop offset="1" stop-color="#1a0f91"  />
		</linearGradient>
		<linearGradient id="grd14" gradientUnits="userSpaceOnUse"  x1="1052.25" y1="1252.157" x2="1319.548" y2="1462.04">
			<stop offset="0" stop-color="#4f52ff"  />
			<stop offset="1" stop-color="#4042e2"  />
		</linearGradient>
		<linearGradient id="grd15" gradientUnits="userSpaceOnUse"  x1="1258.707" y1="1212.103" x2="1240.812" y2="1368.277">
			<stop offset="0" stop-color="#febbba"  />
			<stop offset="1" stop-color="#ff928e"  />
		</linearGradient>
		<linearGradient id="grd16" gradientUnits="userSpaceOnUse"  x1="1569.58" y1="1318.435" x2="1249.655" y2="1569.64">
			<stop offset="0" stop-color="#4f52ff"  />
			<stop offset="1" stop-color="#4042e2"  />
		</linearGradient>
		<linearGradient id="grd17" gradientUnits="userSpaceOnUse"  x1="1398.716" y1="1283.625" x2="1525.466" y2="1283.625">
			<stop offset="0" stop-color="#09005d"  />
			<stop offset="1" stop-color="#1a0f91"  />
		</linearGradient>
		<linearGradient id="grd18" gradientUnits="userSpaceOnUse"  x1="1446.752" y1="1231.84" x2="1430.074" y2="1377.393">
			<stop offset="0" stop-color="#febbba"  />
			<stop offset="1" stop-color="#ff928e"  />
		</linearGradient>
		<linearGradient id="grd19" gradientUnits="userSpaceOnUse"  x1="1831.776" y1="752.187" x2="1228.554" y2="1546.134">
			<stop offset="0" stop-color="#09005d"  />
			<stop offset="1" stop-color="#1a0f91"  />
		</linearGradient>
		<linearGradient id="grd20" gradientUnits="userSpaceOnUse"  x1="1680.226" y1="161.388" x2="1272.637" y2="889.227">
			<stop offset="0" stop-color="#4f52ff"  />
			<stop offset="1" stop-color="#4042e2"  />
		</linearGradient>
		<linearGradient id="grd21" gradientUnits="userSpaceOnUse"  x1="1249.532" y1="150.596" x2="1330.162" y2="150.596">
			<stop offset="0" stop-color="#febbba"  />
			<stop offset="1" stop-color="#ff928e"  />
		</linearGradient>
		<linearGradient id="grd22" gradientUnits="userSpaceOnUse"  x1="7817.016" y1="-5368.907" x2="7921.757" y2="-5465.047">
			<stop offset="0" stop-color="#febbba"  />
			<stop offset="1" stop-color="#ff928e"  />
		</linearGradient>
		<linearGradient id="grd23" gradientUnits="userSpaceOnUse"  x1="1215.031" y1="83.242" x2="1336.25" y2="16.41">
			<stop offset="0" stop-color="#09005d"  />
			<stop offset="1" stop-color="#1a0f91"  />
		</linearGradient>
		<linearGradient id="grd24" gradientUnits="userSpaceOnUse"  x1="6807.75" y1="-4696.177" x2="6896.155" y2="-4777.html">
			<stop offset="0" stop-color="#febbba"  />
			<stop offset="1" stop-color="#ff928e"  />
		</linearGradient>
		<linearGradient id="grd25" gradientUnits="userSpaceOnUse"  x1="1450.748" y1="15.966" x2="1024.706" y2="776.756">
			<stop offset="0" stop-color="#4f52ff"  />
			<stop offset="1" stop-color="#4042e2"  />
		</linearGradient>
		<linearGradient id="grd26" gradientUnits="userSpaceOnUse"  x1="1110.697" y1="-9.305" x2="1067.413" y2="132.913">
			<stop offset="0" stop-color="#febbba"  />
			<stop offset="1" stop-color="#ff928e"  />
		</linearGradient>
		<linearGradient id="grd27" gradientUnits="userSpaceOnUse"  x1="1626.439" y1="164.585" x2="895.753" y2="640.426">
			<stop offset="0" stop-color="#4f52ff"  />
			<stop offset="1" stop-color="#4042e2"  />
		</linearGradient>
		<linearGradient id="grd28" gradientUnits="userSpaceOnUse"  x1="1792.317" y1="353.682" x2="1651.831" y2="406.912">
			<stop offset="0" stop-color="#febbba"  />
			<stop offset="1" stop-color="#ff928e"  />
		</linearGradient>
	</defs>
	<style>
		tspan { white-space:pre }
		.shp0 { fill: url(#grd1) } 
		.shp1 { fill: #3eafad } 
		.shp2 { opacity: 0.502;fill: #ffffff } 
		.shp3 { fill: url(#grd2) } 
		.shp4 { fill: url(#grd3) } 
		.shp5 { opacity: 0.761;fill: #ffffff } 
		.shp6 { fill: url(#grd4) } 
		.shp7 { fill: url(#grd5) } 
		.shp8 { fill: #ffffff } 
		.shp9 { fill: url(#grd6) } 
		.shp10 { fill: url(#grd7) } 
		.shp11 { fill: url(#grd8) } 
		.shp12 { fill: url(#grd9) } 
		.shp13 { fill: url(#grd10) } 
		.shp14 { fill: url(#grd11) } 
		.shp15 { fill: #92d3d2 } 
		.shp16 { fill: url(#grd12) } 
		.shp17 { fill: #26264f } 
		.shp18 { fill: url(#grd13) } 
		.shp19 { fill: url(#grd14) } 
		.shp20 { fill: url(#grd15) } 
		.shp21 { fill: url(#grd16) } 
		.shp22 { fill: url(#grd17) } 
		.shp23 { fill: url(#grd18) } 
		.shp24 { fill: url(#grd19) } 
		.shp25 { fill: url(#grd20) } 
		.shp26 { fill: url(#grd21) } 
		.shp27 { fill: url(#grd22) } 
		.shp28 { fill: url(#grd23) } 
		.shp29 { fill: url(#grd24) } 
		.shp30 { fill: url(#grd25) } 
		.shp31 { fill: url(#grd26) } 
		.shp32 { fill: url(#grd27) } 
		.shp33 { fill: url(#grd28) } 
	</style>
	<g id="Illustration">
		<g id="&lt;Group&gt;">
			<path id="&lt;Path&gt;" class="shp0" d="M2653.66 1893.06C2384.97 2525.73 1669.22 2880.16 1048.52 2784.55C947.52 2769 670.63 2722.66 425.47 2504.03C-46.46 2083.16 -147.39 1249.79 233.31 662.49C510.39 235.04 1007.08 -7.27 1479.04 4.85C1580.69 7.46 1970.29 23.55 2312.69 305.88C2362.98 347.35 2473.9 445.89 2573.86 602.22C2808.6 969.3 2828.78 1480.74 2653.66 1893.06Z" />
			<g id="&lt;Group&gt;">
				<path id="&lt;Path&gt;" class="shp1" d="M1004.6 2521.37C817.21 1853.67 559.11 1340.62 230.3 982.21C197.15 946.07 141.15 961.77 131.69 1010.02C68.42 1332.63 -32.25 2308.84 1004.6 2521.37Z" />
				<path id="&lt;Path&gt;" class="shp2" d="M907.2 2458.84C909.64 2461.18 906.82 2465.06 904.13 2463.08C804.82 2389.87 416.29 2027.61 237.81 1290.26C237.24 1287.89 240.45 1286.9 241.21 1289.21C297.25 1459.75 522.36 2088.12 907.2 2458.84Z" />
			</g>
			<g id="&lt;Group&gt;">
				<path id="&lt;Path&gt;" class="shp1" d="M1009.63 2155.92C1106.9 1662.93 1101.61 1245.32 993.76 903.06C982.89 868.55 938.24 859.61 915.07 887.4C760.2 1073.29 355.22 1666.63 1009.63 2155.92Z" />
				<path id="&lt;Path&gt;" class="shp2" d="M962.73 2082.59C963.64 2084.93 960.33 2086.46 959.13 2084.27C914.55 2003.43 766.13 1638.39 893.51 1103.66C893.92 1101.94 896.52 1102.4 896.26 1104.14C877.15 1232.84 819.8 1713.37 962.73 2082.59Z" />
			</g>
			<g id="&lt;Group&gt;">
				<path id="&lt;Path&gt;" class="shp1" d="M1553.13 2138.43C1734.94 1548.37 1983.84 1099.58 2299.82 792.06C2331.68 761.05 2385.21 777.37 2394.08 820.93C2453.42 1112.24 2546.11 1990.07 1553.13 2138.43Z" />
				<path id="&lt;Path&gt;" class="shp2" d="M1646.57 2086.4C1644.23 2088.4 1646.91 2091.98 1649.49 2090.31C1744.8 2028.8 2117.95 1720.24 2291.49 1067.48C2292.04 1065.38 2288.97 1064.36 2288.24 1066.41C2233.98 1216.79 2016.22 1770.12 1646.57 2086.4Z" />
			</g>
			<g id="&lt;Group&gt;">
				<path id="&lt;Path&gt;" class="shp3" d="M1873.7 2792.85L1141.32 2792.85L1141.32 1377.31C1141.32 1354.98 1159.41 1336.89 1181.74 1336.89L1833.28 1336.89C1855.6 1336.89 1873.7 1354.98 1873.7 1377.31L1873.7 2792.85Z" />
				<path id="&lt;Path&gt;" class="shp4" d="M1687.66 2792.85L955.27 2792.85L955.27 1377.31C955.27 1354.98 973.37 1336.89 995.7 1336.89L1647.23 1336.89C1669.56 1336.89 1687.66 1354.98 1687.66 1377.31L1687.66 2792.85Z" />
				<g id="&lt;Group&gt;">
					<path id="&lt;Path&gt;" class="shp5" d="M1004.38 1608.83C1001.58 1608.83 999.3 1606.55 999.3 1603.75L999.3 1500.46C999.3 1445.39 1039.73 1400.59 1089.42 1400.59L1230.07 1400.59C1232.87 1400.59 1235.14 1402.86 1235.14 1405.66C1235.14 1408.46 1232.87 1410.73 1230.07 1410.73L1089.42 1410.73C1045.32 1410.73 1009.45 1450.98 1009.45 1500.46L1009.45 1603.75C1009.45 1606.55 1007.18 1608.83 1004.38 1608.83Z" />
					<path id="&lt;Path&gt;" class="shp5" d="M1004.38 1718.35C1001.58 1718.35 999.3 1716.08 999.3 1713.28L999.3 1671.19C999.3 1668.39 1001.58 1666.12 1004.38 1666.12C1007.18 1666.12 1009.45 1668.39 1009.45 1671.19L1009.45 1713.28C1009.45 1716.08 1007.18 1718.35 1004.38 1718.35Z" />
				</g>
			</g>
			<g id="&lt;Group&gt;">
				<path id="&lt;Path&gt;" class="shp6" d="M1028.17 2792.85L397.09 2792.85L397.09 1804.92C397.09 1782.59 415.19 1764.5 437.52 1764.5L987.75 1764.5C1010.08 1764.5 1028.17 1782.59 1028.17 1804.92L1028.17 2792.85Z" />
				<path id="&lt;Path&gt;" class="shp7" d="M842.13 2792.85L211.05 2792.85L211.05 1804.92C211.05 1782.59 229.15 1764.5 251.47 1764.5L801.7 1764.5C824.03 1764.5 842.13 1782.59 842.13 1804.92L842.13 2792.85Z" />
				<g id="&lt;Group&gt;" style="opacity: 0.729">
					<path id="&lt;Path&gt;" class="shp8" d="M263.14 2057.41C260.34 2057.41 258.07 2055.14 258.07 2052.34L258.07 1930.47C258.07 1866 305.36 1813.55 363.48 1813.55L529.42 1813.55C532.22 1813.55 534.49 1815.83 534.49 1818.63C534.49 1821.43 532.22 1823.7 529.42 1823.7L363.48 1823.7C310.95 1823.7 268.21 1871.6 268.21 1930.47L268.21 2052.34C268.21 2055.14 265.94 2057.41 263.14 2057.41Z" />
					<path id="&lt;Path&gt;" class="shp8" d="M263.14 2186.63C260.34 2186.63 258.07 2184.36 258.07 2181.56L258.07 2131.91C258.07 2129.11 260.34 2126.84 263.14 2126.84C265.94 2126.84 268.21 2129.11 268.21 2131.91L268.21 2181.56C268.21 2184.36 265.94 2186.63 263.14 2186.63Z" />
				</g>
			</g>
			<g id="&lt;Group&gt;">
				<path id="&lt;Path&gt;" class="shp9" d="M2583.89 2792.85L1952.81 2792.85L1952.81 1804.92C1952.81 1782.59 1970.91 1764.5 1993.24 1764.5L2543.47 1764.5C2565.8 1764.5 2583.89 1782.59 2583.89 1804.92L2583.89 2792.85Z" />
				<path id="&lt;Path&gt;" class="shp10" d="M2397.85 2792.85L1766.77 2792.85L1766.77 1804.92C1766.77 1782.59 1784.87 1764.5 1807.19 1764.5L2357.43 1764.5C2379.75 1764.5 2397.85 1782.59 2397.85 1804.92L2397.85 2792.85Z" />
				<g id="&lt;Group&gt;">
					<path id="&lt;Path&gt;" class="shp5" d="M1818.86 2057.41C1816.06 2057.41 1813.79 2055.14 1813.79 2052.34L1813.79 1930.47C1813.79 1866 1861.08 1813.55 1919.21 1813.55L2085.14 1813.55C2087.94 1813.55 2090.22 1815.83 2090.22 1818.63C2090.22 1821.43 2087.94 1823.7 2085.14 1823.7L1919.21 1823.7C1866.67 1823.7 1823.94 1871.6 1823.94 1930.47L1823.94 2052.34C1823.94 2055.14 1821.66 2057.41 1818.86 2057.41Z" />
					<path id="&lt;Path&gt;" class="shp5" d="M1818.86 2186.63C1816.06 2186.63 1813.79 2184.36 1813.79 2181.56L1813.79 2131.91C1813.79 2129.11 1816.06 2126.84 1818.86 2126.84C1821.66 2126.84 1823.94 2129.11 1823.94 2131.91L1823.94 2181.56C1823.94 2184.36 1821.66 2186.63 1818.86 2186.63Z" />
				</g>
			</g>
			<g id="&lt;Group&gt;">
				<path id="&lt;Path&gt;" class="shp11" d="M1740.37 2592.24L2258.37 1599.85L2152.24 1599.85C2132.67 1599.85 2121.91 1577.1 2134.32 1561.97L2686.41 889.09C2710.33 859.92 2757.6 878.42 2755.38 916.08L2716.57 1574.07C2714.35 1611.74 2680.95 1639.82 2643.46 1635.53L2569.47 1627.06L2055.5 2740.12C2042.12 2769.09 2013.12 2787.65 1981.21 2787.65L1803.07 2787.65L1740.37 2592.24Z" />
				<path id="&lt;Path&gt;" class="shp12" d="M1312.09 1896.23L1677.79 2708.59C1699.45 2756.7 1747.31 2787.65 1800.08 2787.65L1988.61 2787.65C2013.62 2787.65 2036.67 2774.08 2048.8 2752.2L2055.5 2740.12C2035.25 2740.12 2016.7 2728.76 2007.49 2710.72L1520.24 1756.02L1312.09 1896.23Z" />
				<path id="&lt;Path&gt;" class="shp13" d="M1569.46 1852.45C1532.79 1823.49 1479.21 1832.01 1453.32 1870.91L915.64 2678.73C872.57 2743.43 800 2782.3 722.28 2782.3L646.62 2782.3L585.05 2604.93C918.29 2093.97 1127.85 1799.85 1213.74 1722.55C1299.28 1645.46 1384.21 1636.06 1468.55 1694.35C1501.97 1717.44 1527.35 1750.41 1542.84 1787.96L1569.46 1852.45Z" />
				<path id="&lt;Path&gt;" class="shp14" d="M0.25 2127.89C60.25 2052.89 148.39 2009.56 264.66 1997.89C319.89 2016.71 402.51 2124.69 512.53 2321.83C677.56 2617.53 787.1 2752.38 915.64 2678.73L905 2696.4C869.92 2754.63 806.91 2790.24 738.94 2790.24L667.85 2790.24C589.57 2790.24 521.6 2669.68 475.89 2606.14C347.45 2427.58 79.15 2155.61 0.25 2127.89Z" />
				<path id="&lt;Path&gt;" class="shp15" d="M2693.09 1124.08C2692.9 1124.08 2692.7 1124.07 2692.51 1124.04C2689.73 1123.73 2687.73 1121.22 2688.04 1118.43L2691.68 1086.3C2692 1083.52 2694.51 1081.52 2697.29 1081.84C2700.08 1082.15 2702.08 1084.66 2701.76 1087.45L2698.12 1119.57C2697.83 1122.16 2695.63 1124.08 2693.09 1124.08Z" />
				<path id="&lt;Path&gt;" class="shp15" d="M2232.22 1529.64C2231.14 1529.64 2230.05 1529.3 2229.13 1528.59C2226.91 1526.88 2226.49 1523.69 2228.2 1521.48L2684.09 929.11C2689.46 922.14 2698.2 919.77 2706.34 923.07C2714.5 926.37 2719.13 934.14 2718.14 942.88L2710.09 1013.89C2709.78 1016.67 2707.26 1018.66 2704.49 1018.36C2701.7 1018.04 2699.7 1015.53 2700.02 1012.75L2708.06 941.74C2708.62 936.78 2705.58 933.7 2702.54 932.47C2699.5 931.24 2695.17 931.34 2692.13 935.3L2236.24 1527.66C2235.24 1528.96 2233.74 1529.64 2232.22 1529.64Z" />
				<path id="&lt;Path&gt;" class="shp15" d="M1197.99 2150.64C1197.01 2150.64 1196.03 2150.35 1195.16 2149.77C1192.84 2148.2 1192.22 2145.05 1193.79 2142.73L1429.57 1793.25C1438.01 1780.73 1452.03 1773.95 1467.1 1775.07C1482.16 1776.22 1495.01 1785.05 1501.47 1798.7C1502.67 1801.23 1501.59 1804.25 1499.06 1805.45C1496.53 1806.66 1493.51 1805.57 1492.31 1803.04C1487.43 1792.72 1477.72 1786.05 1466.34 1785.19C1454.95 1784.32 1444.36 1789.46 1437.97 1798.92L1202.2 2148.4C1201.22 2149.85 1199.62 2150.64 1197.99 2150.64Z" />
				<path id="&lt;Path&gt;" class="shp15" d="M1136.72 2241.45C1135.74 2241.45 1134.76 2241.17 1133.89 2240.58C1131.57 2239.02 1130.95 2235.87 1132.52 2233.54L1147.64 2211.14C1149.21 2208.81 1152.37 2208.2 1154.68 2209.77C1157 2211.33 1157.62 2214.49 1156.05 2216.81L1140.93 2239.22C1139.95 2240.67 1138.35 2241.45 1136.72 2241.45Z" />
			</g>
			<g id="&lt;Group&gt;">
				<g id="&lt;Group&gt;">
					<path id="&lt;Path&gt;" class="shp16" d="M1736.69 47.8C1848.93 14.54 1955.97 23.51 2009.41 37.64C2072.59 54.35 2093.55 66.88 2149.48 73.19C2199.19 78.8 2331.31 38.58 2314.39 68.83C2292.35 108.27 2298.38 262.73 2331.3 327.13C2336.09 336.49 2179.63 359.68 2084.83 342.36C1954.14 318.48 1912.06 278.44 1826.25 296.66C1786.66 305.06 1756.58 321.87 1737.36 334.75C1746.11 239.52 1727.93 143.02 1736.69 47.8Z" />
					<path id="&lt;Path&gt;" class="shp17" d="M1738.1 1345.03C1735.3 1345.03 1733.03 1342.75 1733.03 1339.95L1733.03 33.18C1733.03 30.38 1735.3 28.11 1738.1 28.11C1740.9 28.11 1743.17 30.38 1743.17 33.18L1743.17 1339.95C1743.17 1342.75 1740.9 1345.03 1738.1 1345.03Z" />
				</g>
				<g id="&lt;Group&gt;">
					<path id="&lt;Path&gt;" class="shp18" d="M1176.21 1345.18C1176.2 1344.5 1176.24 1343.81 1176.42 1343.12C1183.25 1316.01 1200.65 1295.51 1228.6 1281.62L1248.78 1283.2C1260.37 1319.04 1267.85 1336.53 1265.99 1346.32C1265.94 1346.6 1265.85 1346.86 1265.78 1347.12C1249.14 1348.61 1214.89 1349.58 1176.21 1345.18Z" />
					<path id="&lt;Path&gt;" class="shp19" d="M1266.02 1347.12C1265.13 1350.39 1262.71 1352.94 1259.62 1353.59C1235.96 1358.56 1198.34 1354.56 1182.54 1352.49C1179.06 1352.04 1176.51 1348.81 1176.45 1345.18C1215.14 1349.58 1249.39 1348.61 1266.02 1347.12Z" />
					<path id="&lt;Path&gt;" class="shp20" d="M1212 1250.23L1220.83 1292.75C1221.47 1295.86 1223.87 1298.19 1226.77 1298.47C1230.32 1298.8 1235.37 1298.99 1240.45 1298.25C1245.01 1297.58 1248.18 1292.95 1247.37 1287.98L1241.23 1250.23L1212 1250.23Z" />
					<path id="&lt;Path&gt;" class="shp21" d="M1436.89 1346.77C1415.35 1346.17 1404.2 1343.63 1398.44 1341.27C1398.43 1343.42 1398.44 1345.6 1398.51 1347.85C1398.59 1350.27 1400.37 1352.19 1402.57 1352.18L1520.85 1351.42C1524.63 1351.39 1526.83 1347.01 1525.2 1343.55C1509.69 1344.83 1470.19 1347.7 1436.89 1346.77Z" />
					<path id="&lt;Path&gt;" class="shp22" d="M1525.47 1343.55C1525.32 1343.25 1525.2 1342.94 1525 1342.66C1514.55 1328.07 1487.95 1299 1435.38 1286.4L1410.16 1285.6C1402.67 1298.61 1398.86 1317.17 1398.72 1341.27C1404.48 1343.63 1415.62 1346.17 1437.16 1346.77C1470.46 1347.7 1509.96 1344.83 1525.47 1343.55Z" />
					<path id="&lt;Path&gt;" class="shp23" d="M1405.48 1247.38C1405.76 1249.26 1409.22 1277.83 1410.56 1288.91C1410.87 1291.54 1412.78 1293.58 1415.19 1293.87C1419.48 1294.38 1426.43 1294.85 1432.51 1293.6C1435.79 1292.93 1438.16 1289.78 1438.16 1286.11L1438.16 1241.26L1405.48 1247.38Z" />
					<path id="&lt;Path&gt;" class="shp24" d="M1228.85 691.97C1201.94 931.12 1195.97 1125.43 1210.91 1274.89C1228.85 1274.89 1242.3 1273.4 1251.27 1270.41C1279.23 1036.59 1297.73 886.22 1306.77 819.31C1307.28 815.52 1312.68 815.35 1313.43 819.1C1330.16 903.53 1395.91 1234.66 1403.73 1265.93C1418.67 1271.9 1432.12 1271.9 1444.08 1265.93C1420.17 946.07 1399.24 757.74 1381.31 700.94L1228.85 691.97Z" />
					<path id="&lt;Path&gt;" class="shp25" d="M1148.14 274.96C1238.58 262.75 1325.08 262.87 1407.61 275.33C1438.24 279.95 1459.59 308.16 1455.44 338.86L1444.08 422.93C1420.17 551.47 1399.24 644.14 1381.31 700.94C1312.55 712.9 1261.73 709.91 1228.85 691.97C1201.94 530.55 1181.02 437.88 1166.07 413.96C1151.13 351.19 1145.15 304.85 1148.14 274.96Z" />
					<path id="&lt;Path&gt;" class="shp26" d="M1266.51 152.43L1249.53 267.22C1281.15 281.75 1308.02 281.44 1330.16 266.29L1323.01 185.28L1266.51 152.43Z" />
					<g id="&lt;Group&gt;">
						<path id="&lt;Path&gt;" class="shp27" d="M1339.59 77.69C1340.13 78.65 1350.36 136.54 1356.65 172.37C1359.26 187.17 1348.37 200.93 1333.37 201.82L1319.63 202.63C1294.38 204.12 1272.15 186.15 1268.32 161.15L1258.39 96.24C1303.87 68.18 1330.94 61.99 1339.59 77.69Z" />
						<path id="&lt;Path&gt;" class="shp28" d="M1243.57 96.4C1238.31 89.85 1233.71 79.26 1244.93 68.12C1256.29 56.84 1269.17 59.65 1277.35 63.44C1280.96 65.11 1285.42 64.37 1288 61.32C1289.14 59.97 1290.84 59.05 1293.36 59.34C1298.11 59.87 1302.35 56.73 1302.92 51.98C1303.89 43.84 1308.22 34.26 1322.61 31.48C1349.01 26.38 1362.18 52.79 1361.71 71.36C1361.24 89.93 1332.3 93.83 1315.89 90.75C1303.83 88.49 1293.41 99.08 1288.72 104.87C1287.02 106.97 1286.38 109.72 1287 112.35L1291.17 130.29C1288.28 135.86 1285.44 141.56 1281.38 146.32C1278.46 149.74 1275.25 151.63 1271.86 152.43C1266.93 143.27 1253.17 141.72 1246.77 141.51C1244.32 141.43 1242.04 140.36 1240.43 138.51C1235.6 132.98 1228.05 120.63 1242.51 108.5C1246.1 105.49 1246.51 100.06 1243.57 96.4Z" />
						<path id="&lt;Path&gt;" class="shp29" d="M1276.61 171.64C1276.24 150.04 1271.68 138.23 1262.94 136.21C1249.83 133.16 1235.69 142.64 1246.9 162.03C1256.19 178.11 1266.1 181.31 1276.61 171.64Z" />
					</g>
					<path id="&lt;Path&gt;" class="shp30" d="M1224.83 429.79C968.16 359.92 903.54 235.15 1030.99 55.47L1043.93 73.78C1005.53 195.48 1049.93 262.11 1177.13 273.68C1210.08 358.64 1225.98 410.68 1224.83 429.79Z" />
					<path id="&lt;Path&gt;" class="shp31" d="M1029.69 56.86C1026.8 22.16 1034.03 3.37 1051.38 0.48C1077.39 -3.85 1086.07 22.16 1090.4 35.17C1094.74 48.18 1051.38 74.2 1042.7 74.2C1036.92 74.2 1032.59 68.42 1029.69 56.86Z" />
					<path id="&lt;Path&gt;" class="shp32" d="M1432.32 458.57C1465.49 589.87 1565.29 583.2 1731.7 438.55L1712.57 426.87C1566.05 530.81 1479.89 494.13 1454.07 316.82C1439.57 395.37 1432.32 442.62 1432.32 458.57Z" />
					<path id="&lt;Path&gt;" class="shp33" d="M1730.41 439.94C1765.22 440.51 1783.48 432.04 1785.21 414.54C1787.8 388.29 1761.26 381.38 1747.99 377.92C1734.72 374.46 1711.65 419.46 1712.23 428.12C1712.62 433.89 1718.68 437.83 1730.41 439.94Z" />
				</g>
			</g>
		</g>
	</g>
</svg>